<svg width="25" height="27" viewBox="0 0 25 27" fill="none" xmlns="http://www.w3.org/2000/svg">
<path d="M22.5581 19.1971C22.5581 20.8221 22.1087 22.1312 21.2111 23.0217C20.311 23.9135 19.0642 24.3867 17.5661 24.3867H7.38153C5.88344 24.3867 4.63544 23.9135 3.73658 23.0217C2.83896 22.0792 2.38706 20.7688 2.38706 19.1438V8.39668C2.38706 6.82368 6.4282 1.74067 7.32582 0.796875C2.98629 0.799475 0.092865 3.83888 0.092865 8.39668V19.1425C0.092865 21.3967 0.791151 23.3376 2.18896 24.752C3.53725 26.1144 5.33372 26.7969 7.38153 26.7969H17.5661C19.7117 26.7969 21.5094 26.0624 22.807 24.752C24.1552 23.3896 24.8548 21.45 24.8548 19.1958V8.39668C24.8548 6.19578 24.1552 4.30817 22.8577 2.94578C21.5602 1.53008 19.7105 0.796875 17.6156 0.796875H7.32953L3.73658 4.57207C4.58591 3.68027 5.88344 3.20837 7.38153 3.20837H17.6652C19.1632 3.20837 20.4112 3.68027 21.3101 4.62537C22.1594 5.56787 22.6572 6.87827 22.6572 8.39797V19.1971H22.5581ZM19.0134 8.55397C19.207 8.55992 19.3997 8.52503 19.5802 8.45136C19.7606 8.3777 19.9252 8.26676 20.0641 8.12511C20.203 7.98347 20.3134 7.814 20.3888 7.62674C20.4642 7.43948 20.5031 7.23824 20.5031 7.03492C20.5031 6.83161 20.4642 6.63037 20.3888 6.44311C20.3134 6.25585 20.203 6.08638 20.0641 5.94473C19.9252 5.80309 19.7606 5.69215 19.5802 5.61849C19.3997 5.54482 19.207 5.50993 19.0134 5.51587C18.6371 5.52744 18.2798 5.69255 18.0175 5.97616C17.7552 6.25978 17.6084 6.63957 17.6084 7.03492C17.6084 7.43028 17.7552 7.81007 18.0175 8.09369C18.2798 8.3773 18.6371 8.54241 19.0134 8.55397ZM12.4738 18.096C11.3894 18.0908 10.3508 17.6363 9.58405 16.8311C8.81726 16.026 8.38432 14.9355 8.37944 13.7969C8.38432 12.6583 8.81726 11.5677 9.58405 10.7626C10.3508 9.95749 11.3894 9.5029 12.4738 9.49778C13.5582 9.5029 14.5968 9.95749 15.3636 10.7626C16.1304 11.5677 16.5633 12.6583 16.5682 13.7969C16.563 14.9353 16.1299 16.0254 15.3632 16.8303C14.5964 17.6351 13.558 18.0895 12.4738 18.0947V18.096ZM12.4738 7.08757C8.97991 7.08757 6.08401 10.075 6.08401 13.7969C6.08172 14.6786 6.24544 15.5522 6.56574 16.3673C6.88605 17.1823 7.35664 17.9229 7.95044 18.5464C8.54424 19.1699 9.24956 19.664 10.0258 20.0004C10.8021 20.3367 11.6341 20.5086 12.4738 20.5062C16.0185 20.5062 18.8624 17.4655 18.8624 13.7982C18.8624 10.127 15.9677 7.08757 12.4738 7.08757Z" fill="white"/>
</svg>
