<svg width="129" height="42" viewBox="0 0 129 42" fill="none" xmlns="http://www.w3.org/2000/svg">
<g clip-path="url(#clip0_2_178)">
<path d="M94.25 34.0582C91.077 34.0582 88.603 32.7512 87.016 30.3702V33.5902H80.434V1.49121H87.016V13.8922C88.603 11.5122 91.076 10.2042 94.251 10.2042C100.179 10.2042 104.894 15.5262 104.894 22.1072C104.894 28.6892 100.179 34.0572 94.251 34.0572L94.25 34.0582ZM92.757 16.4602C89.536 16.4602 87.016 18.9332 87.016 22.1072C87.016 25.3292 89.536 27.7552 92.756 27.7552C95.932 27.7552 98.499 25.2822 98.499 22.1072C98.499 18.9802 95.932 16.4602 92.757 16.4602Z" fill="#FCFCFA"/>
<path d="M128.078 10.6711L115.334 41.2001H108.286L112.533 31.7241L103.711 10.6711H110.806L115.894 24.0681L120.984 10.6711H128.078Z" fill="#FCFCFA"/>
<path d="M77.395 33.5912H70.813V1.49121H77.395V33.5912Z" fill="#FCFCFA"/>
<path d="M68.194 33.5911H61.986V30.7441C60.632 32.9841 58.485 34.0581 55.451 34.0581C51.39 34.0581 48.355 31.0241 48.355 27.1961C48.355 22.3881 52.603 19.8661 59.045 19.8661H61.985V19.3531C61.985 17.2991 60.212 15.5711 57.598 15.5711C55.124 15.5711 52.697 16.9261 51.436 18.5131L47.842 14.6851C49.849 12.0701 53.77 10.2031 57.598 10.2031C64.087 10.2031 68.194 13.9851 68.194 19.4931V33.5911ZM61.986 23.9751H58.718C55.824 23.9751 54.097 24.8621 54.097 26.5891C54.097 27.9891 55.217 28.9231 56.991 28.9231C59.885 28.9231 61.986 26.9631 61.986 24.6751V23.9751Z" fill="#FCFCFA"/>
<path d="M46.017 20.6142V33.5912H39.435V21.4542C39.435 18.4672 37.615 16.5062 34.907 16.5062C32.153 16.5062 30.379 18.4672 30.379 21.4542V33.5912H23.797V1.49121H30.379V13.6592C31.826 11.4652 33.973 10.2042 36.589 10.2042C42.469 10.2042 46.017 14.1262 46.017 20.6142Z" fill="#FCFCFA"/>
<path d="M21.21 33.3112C20.37 33.7312 19.062 33.9642 17.848 33.9642C12.48 33.9642 8.69897 30.5562 8.69897 24.6282V1.49121H15.281V10.6712H20.929V16.9262H15.281V24.3012C15.281 26.4492 16.914 27.8022 18.828 27.8022C19.482 27.8022 20.369 27.6632 20.882 27.4762L21.21 33.3112Z" fill="#FCFCFA"/>
<path d="M7.435 13.7981C7.43506 14.2702 7.34214 14.7377 7.16153 15.1739C6.98093 15.6101 6.71618 16.0064 6.3824 16.3403C6.04862 16.6742 5.65234 16.939 5.2162 17.1198C4.78006 17.3005 4.3126 17.3935 3.8405 17.3936C3.36839 17.3937 2.9009 17.3007 2.46471 17.1201C2.02852 16.9395 1.63217 16.6748 1.2983 16.341C0.964427 16.0072 0.699566 15.611 0.51884 15.1748C0.338113 14.7387 0.245061 14.2712 0.244995 13.7991C0.244995 12.8456 0.623753 11.9312 1.29795 11.2571C1.97214 10.5829 2.88654 10.2041 3.83999 10.2041C4.79345 10.2041 5.70785 10.5829 6.38204 11.2571C7.05624 11.9312 7.435 12.8456 7.435 13.7991V13.7981Z" fill="#CCCC33"/>
</g>
<defs>
<clipPath id="clip0_2_178">
<rect width="129" height="41" fill="white" transform="translate(0 0.828125)"/>
</clipPath>
</defs>
</svg>
