<svg width="26" height="27" viewBox="0 0 26 27" fill="none" xmlns="http://www.w3.org/2000/svg">
<path d="M26 3.90507C25.0455 4.43007 24.0148 4.77987 22.9385 4.93607C24.0402 4.12377 24.883 2.83657 25.2842 1.30557C24.2534 2.05537 23.1111 2.60527 21.8977 2.89897C20.9227 1.62407 19.5366 0.830566 18.0034 0.830566C15.0587 0.830566 12.6726 3.76757 12.6726 7.39177C12.6726 7.90417 12.7182 8.40407 12.8095 8.88527C8.37719 8.61027 4.44762 5.99827 1.81755 2.02407C1.3606 2.99277 1.09662 4.12377 1.09662 5.32347C1.09662 7.59807 2.03587 9.61017 3.46766 10.785C2.59422 10.7536 1.77181 10.4537 1.05088 9.96627V10.0475C1.05088 13.2281 2.88875 15.8838 5.33088 16.4837C4.88401 16.6337 4.41195 16.7149 3.92445 16.7149C3.5793 16.7149 3.24926 16.6711 2.91922 16.5961C3.59961 19.2018 5.5696 21.1015 7.89985 21.1577C6.07213 22.9199 3.77722 23.9697 1.27423 23.9697C0.842796 23.9697 0.421271 23.9384 -9.15527e-05 23.8759C2.36591 25.7443 5.16847 26.8253 8.17918 26.8253C17.9882 26.8253 23.3547 16.821 23.3547 8.14767C23.3547 7.86027 23.3496 7.57907 23.3395 7.29787C24.3804 6.37947 25.2842 5.22347 26 3.90507Z" fill="white"/>
</svg>
